<svg xmlns="http://www.w3.org/2000/svg" width="86" height="39" viewBox="0 0 86 39">
  <g fill="#86E99A">
    <polygon points="0 23.083 0 19.099 4.013 19.099 4.013 17.075 7.996 17.075 7.996 15.083 12.009 15.083 12.009 13.091 15.991 13.091 15.991 19.099 28 19.099 28 23.083 15.991 23.083 15.991 29.091 12.009 29.091 12.009 27.099 7.996 27.099 7.996 25.106 4.013 25.106 4.013 23.083"/>
    <path d="M82.1271333,19.0788102 L82.1271333,15.2413032 L78.3230667,15.2413032 L78.3230667,3.95237691 L73.9184333,3.95237691 L73.9184333,7.64003297 L70.6012222,7.64003297 L70.6012222,3.83750697 L66.6882222,3.83750697 L66.6882222,0 L62.2831111,0 L62.2831111,3.83750697 L58.4045111,3.83750697 L58.4045111,7.64003297 L54.5617444,7.64003297 L54.5617444,11.4770672 L50.6831444,11.4770672 L50.6831444,15.2413032 L46.8786,15.2413032 L46.8786,19.0788102 L43,19.0788102 L43,23.43725 L46.8786,23.43725 L46.8786,34.6406148 L46.8346444,34.6406148 L46.8346444,38.9981091 L82.1271333,39 L82.1271333,23.43725 L86,23.43725 L86,19.0788102 L82.1271333,19.0788102 Z M66.1942,27.5446777 L66.1942,34.6410875 L62.8096222,34.6410875 L62.8096222,27.5446777 L66.1942,27.5446777 Z M70.0398333,11.998 L70.0398333,15.8364524 L73.9074444,15.8364524 L73.9074444,19.5992703 L77.7225,19.5992703 L77.7225,34.6406148 L70.5988333,34.6406148 L70.6012222,23.1871833 L58.4045111,23.1871833 L58.4045111,34.6406148 L51.2827556,34.6406148 L51.2827556,19.5992703 L55.0987667,19.5992703 L55.0987667,15.8364524 L58.9663778,15.8364524 L58.9663778,11.998 L62.8110556,11.998 L62.8110556,8.19547405 L66.1942,8.19547405 L66.1942,11.998 L70.0398333,11.998 Z"/>
  </g>
</svg>
