<svg xmlns="http://www.w3.org/2000/svg" width="24" height="20" viewBox="0 0 24 20">
  <path fill="#68149C" d="M9.9767791,13.3799224 L9.9767791,16.6552043 L13.2326073,16.6552043 L13.2326073,13.3799224 L16.558282,13.3799224 L16.558282,16.7249646 L13.2617713,16.7249646 L13.2617713,20 L9.93634164,20 L9.93634164,16.7249646 L6.65134945,16.7249646 L6.65134945,13.3799224 L9.9767791,13.3799224 Z M6.65110437,10.0348801 L6.65110437,13.3799224 L3.32567472,13.3799224 L3.32567472,10.0348801 L6.65110437,10.0348801 Z M19.8839567,10.0348801 L19.8839567,13.3799224 L16.558282,13.3799224 L16.558282,10.0348801 L19.8839567,10.0348801 Z M3.32567472,3.34479571 L3.32567472,10.0348801 L-7.77156117e-15,10.0348801 L-7.77156117e-15,3.34479571 L3.32567472,3.34479571 Z M23.2098765,3.34479571 L23.2098765,10.0348801 L19.8839567,10.0348801 L19.8839567,3.34479571 L23.2098765,3.34479571 Z M19.8839567,1.50990331e-14 L19.8839567,3.34479571 L13.3024538,3.34479571 L13.3024538,6.68983792 L9.9767791,6.68983792 L9.9767791,3.34479571 L13.2326073,3.34479571 L13.2326073,1.50990331e-14 L19.8839567,1.50990331e-14 Z M9.9767791,5.10702591e-14 L9.9767791,3.34479571 L3.32567472,3.34479571 L3.32567472,5.10702591e-14 L9.9767791,5.10702591e-14 Z"/>
</svg>
