<svg xmlns="http://www.w3.org/2000/svg" width="22" height="20" viewBox="0 0 22 20">
  <path fill="#68149C" d="M19.9741463,9.78400524 L19.9741463,7.81605294 L18.0321951,7.81605294 L18.0321951,2.02685995 L15.7836585,2.02685995 L15.7836585,3.91796563 L14.0902439,3.91796563 L14.0902439,1.96795229 L12.0926829,1.96795229 L12.0926829,0 L9.84390244,0 L9.84390244,1.96795229 L7.86390244,1.96795229 L7.86390244,3.91796563 L5.90219512,3.91796563 L5.90219512,5.8856755 L3.92219512,5.8856755 L3.92219512,7.81605294 L1.98,7.81605294 L1.98,9.78400524 L0,9.78400524 L0,12.0191026 L1.98,12.0191026 L1.98,17.7644178 L1.95756098,17.7644178 L1.95756098,19.9990303 L19.9741463,20 L19.9741463,12.0191026 L21.9512195,12.0191026 L21.9512195,9.78400524 L19.9741463,9.78400524 Z M11.8404878,14.1254757 L11.8404878,17.7646603 L10.1126829,17.7646603 L10.1126829,14.1254757 L11.8404878,14.1254757 Z M13.8036585,6.15282054 L13.8036585,8.12125767 L15.7780488,8.12125767 L15.7780488,10.0509079 L17.7256098,10.0509079 L17.7256098,17.7644178 L14.0890244,17.7644178 L14.0902439,11.8908633 L7.86390244,11.8908633 L7.86390244,17.7644178 L4.22829268,17.7644178 L4.22829268,10.0509079 L6.17634146,10.0509079 L6.17634146,8.12125767 L8.15073171,8.12125767 L8.15073171,6.15282054 L10.1134146,6.15282054 L10.1134146,4.2028072 L11.8404878,4.2028072 L11.8404878,6.15282054 L13.8036585,6.15282054 Z"/>
</svg>
